<svg xmlns="http://www.w3.org/2000/svg" xmlns:v="https://svgstorm.com"
viewBox = "0 0 500 500"
width="500"
height="500">
<!-- Removed the stroke-only groups and the initial bounding box stroke -->
<g fill="#27838D" fill-opacity="1.00" stroke="None">
<path shape-rendering="geometricPrecision" d="
M 249.00 259.00
C 252.76 256.20 251.46 246.65 247.00 245.00
C 235.46 246.48 223.83 243.52 213.67 240.33 C 203.51 237.14 196.16 249.34 187.00 251.00
C 185.53 241.29 192.59 228.35 188.30 219.70 C 184.02 211.04 179.11 203.94 177.78 194.22 C 176.44 184.51 176.96 171.43 181.08 163.08 C 185.19 154.73 189.33 147.96 196.25 142.25 C 203.17 136.53 209.85 131.12 218.32 129.32 C 226.80 127.53 242.59 123.23 250.99 128.01 C 259.39 132.79 275.62 128.08 268.25 118.75 C 260.87 109.43 249.32 113.97 240.00 111.00 C 230.68 108.03 218.23 113.60 209.69 115.69 C 201.15 117.79 194.11 123.45 187.25 129.25 C 180.39 135.05 175.64 140.89 170.92 148.92 C 166.21 156.95 164.11 166.22 162.00 176.00 C 159.88 185.77 162.65 197.14 165.02 206.98 C 167.39 216.81 173.93 220.92 174.33 231.33 C 174.73 241.74 170.24 252.28 171.01 263.99 C 171.78 275.71 186.16 268.30 192.92 263.92 C 199.69 259.55 209.45 252.79 217.78 257.22 C 226.10 261.66 239.72 259.75 249.00 259.00 Z"/>
</g>
<g fill="#0C2846" fill-opacity="1.00" stroke="None">
<path shape-rendering="geometricPrecision" d="
M 282.00 226.00
C 286.06 225.42 292.64 232.12 292.00 236.00
C 297.94 229.11 302.81 222.89 306.08 214.08 C 309.34 205.26 312.67 194.02 312.00 184.00 C 311.33 173.98 311.58 162.53 305.92 154.08 C 300.27 145.62 301.19 139.18 291.25 132.75 C 281.30 126.33 276.66 140.48 285.25 146.75 C 293.84 153.03 293.45 162.50 297.00 171.00 C 300.55 179.50 297.05 194.75 294.93 202.93 C 292.81 211.10 287.73 219.80 282.00 226.00 Z"/>
</g>
<g fill="#0C2846" fill-opacity="1.00" stroke="None">
<path shape-rendering="geometricPrecision" d="
M 283.00 190.00
C 283.25 185.43 283.25 180.57 283.00 176.00
C 282.43 165.58 278.67 161.82 272.75 153.25 C 266.83 144.67 254.27 152.73 261.25 160.75 C 268.22 168.77 269.64 173.79 270.00 184.00 C 270.36 194.21 266.26 199.03 260.75 207.75 C 255.25 216.48 268.81 221.72 273.75 212.75 C 278.69 203.77 282.45 200.13 283.00 190.00 Z"/>
</g>
<g fill="#0D2846" fill-opacity="1.00" stroke="None">
<path shape-rendering="geometricPrecision" d="
M 241.00 180.00
C 241.69 182.78 241.68 184.27 241.00 187.00
C 239.75 192.04 230.80 201.25 237.93 205.07 C 245.05 208.89 249.78 200.41 252.23 195.23 C 254.68 190.04 256.87 178.85 253.77 173.23 C 250.68 167.61 247.62 159.46 239.70 162.70 C 231.77 165.94 239.75 174.95 241.00 180.00 Z"/>
</g>
<g fill="#777C85" fill-opacity="1.00" stroke="None">
<path shape-rendering="geometricPrecision" d="
M 283.00 190.00
C 283.74 185.46 283.75 180.60 283.00 176.00
C 283.25 180.57 283.25 185.43 283.00 190.00 Z"/>
</g>
<g fill="#818790" fill-opacity="1.00" stroke="None">
<path shape-rendering="geometricPrecision" d="
M 241.00 187.00
C 241.68 184.27 241.69 182.78 241.00 180.00
C 241.25 182.13 241.25 184.87 241.00 187.00 Z"/>
</g>
<g fill="#F4AA34" fill-opacity="1.00" stroke="None">
<path shape-rendering="geometricPrecision" d="
M 247.00 245.00
C 251.46 246.65 252.76 256.20 249.00 259.00
C 264.96 257.72 280.57 249.24 292.00 236.00
C 292.64 232.12 286.06 225.42 282.00 226.00
C 272.69 236.07 260.48 243.74 247.00 245.00 Z"/>
</g>
<g fill="#0E2845" fill-opacity="1.00" stroke="None">
<path shape-rendering="geometricPrecision" d="
M 86.00 301.00
C 85.54 303.57 85.68 307.41 86.00 310.00
C 87.64 326.22 105.11 318.24 112.75 329.25 C 120.38 340.27 93.77 344.03 87.00 335.00
C 85.35 337.91 84.22 340.93 83.00 344.00
C 93.60 352.28 106.51 351.61 118.30 347.30 C 130.10 343.00 127.13 319.52 117.08 317.92 C 107.03 316.33 86.84 304.25 103.00 299.00
C 106.04 298.01 108.05 298.23 111.00 299.00
C 114.60 299.62 117.76 301.33 121.00 303.00
C 122.65 300.09 123.78 297.07 125.00 294.00
C 113.62 286.09 91.07 284.95 86.00 301.00 Z"/>
</g>
<g fill="#CFD2D4" fill-opacity="1.00" stroke="None">
<path shape-rendering="geometricPrecision" d="
M 284.00 349.00
C 280.69 349.30 277.31 348.78 274.00 349.00
C 274.00 329.00 274.00 309.00 274.00 289.00
C 274.00 288.50 274.00 288.00 274.00 288.00
C 269.12 292.69 275.24 305.36 273.00 312.00 C 270.76 318.64 275.55 330.22 273.00 337.00 C 270.45 343.78 276.27 356.73 284.00 349.00 Z"/>
</g>
<g fill="#4D5A6B" fill-opacity="1.00" stroke="None">
<path shape-rendering="geometricPrecision" d="
M 274.00 289.00
C 274.25 289.25 275.00 289.00 275.00 289.00
C 277.96 289.00 281.06 289.27 284.00 289.00
C 284.00 288.50 284.00 288.00 284.00 288.00
C 280.85 287.72 277.15 287.71 274.00 288.00
C 274.00 288.00 274.00 288.50 274.00 289.00 Z"/>
</g>
<g fill="#787E87" fill-opacity="1.00" stroke="None">
<path shape-rendering="geometricPrecision" d="
M 284.00 289.00
C 284.00 294.09 283.80 303.32 284.00 308.00 C 284.20 312.68 282.57 323.97 286.00 323.00
C 283.20 318.62 286.31 309.99 285.00 305.00 C 283.69 300.01 287.62 291.48 284.00 288.00
C 284.00 288.00 284.00 288.50 284.00 289.00 Z"/>
</g>
<g fill="#020B1A" fill-opacity="1.00" stroke="None">
<path shape-rendering="geometricPrecision" d="
M 284.00 349.00
C 284.04 349.00 284.00 348.00 284.00 348.00
C 281.02 347.73 277.98 348.20 275.00 348.00
C 275.00 328.33 275.00 308.67 275.00 289.00
C 275.00 289.00 274.25 289.25 274.00 289.00
C 274.00 309.00 274.00 329.00 274.00 349.00
C 277.31 348.78 280.69 349.30 284.00 349.00 Z"/>
</g>
<g fill="#0B2744" fill-opacity="1.00" stroke="None">
<path shape-rendering="geometricPrecision" d="
M 284.00 348.00
C 284.00 343.83 282.62 329.04 286.00 330.00
C 294.38 338.83 298.54 353.88 314.00 349.00
C 307.61 341.94 303.63 333.02 296.00 327.00
C 299.24 319.18 307.67 313.78 311.00 306.00
C 296.33 298.11 295.48 320.31 286.00 323.00
C 282.57 323.97 284.20 312.68 284.00 308.00 C 283.80 303.32 284.00 294.09 284.00 289.00
C 281.06 289.27 277.96 289.00 275.00 289.00
C 275.00 308.67 275.00 328.33 275.00 348.00
C 277.98 348.20 281.02 347.73 284.00 348.00 Z"/>
</g>
<g fill="#818D99" fill-opacity="1.00" stroke="None">
<path shape-rendering="geometricPrecision" d="
M 333.00 331.00
C 332.26 317.37 333.55 303.64 333.00 290.00
C 328.93 292.85 333.29 305.96 332.00 311.00 C 330.71 316.04 332.24 326.33 333.00 331.00 Z"/>
</g>
<g fill="#0F2845" fill-opacity="1.00" stroke="None">
<path shape-rendering="geometricPrecision" d="
M 333.00 331.00
C 333.46 348.60 358.10 358.23 371.75 345.75 C 385.40 333.27 378.24 307.23 380.00 290.00
C 376.33 290.00 372.67 290.00 369.00 290.00
C 365.81 303.19 378.11 340.86 356.01 340.99 C 333.91 341.12 347.96 302.84 344.00 290.00
C 341.24 291.29 335.46 288.28 333.00 290.00
C 333.55 303.64 332.26 317.37 333.00 331.00 Z"/>
</g>
<g fill="#40434D" fill-opacity="1.00" stroke="None">
<path shape-rendering="geometricPrecision" d="
M 103.00 299.00
C 105.25 298.58 108.73 298.70 111.00 299.00
C 108.05 298.23 106.04 298.01 103.00 299.00 Z"/>
</g>
<g fill="#5E646D" fill-opacity="1.00" stroke="None">
<path shape-rendering="geometricPrecision" d="
M 86.00 310.00
C 85.68 307.41 85.54 303.57 86.00 301.00
C 84.98 304.24 85.19 306.75 86.00 310.00 Z"/>
</g>
<g fill="#0D2744" fill-opacity="1.00" stroke="None">
<path shape-rendering="geometricPrecision" d="
M 133.00 368.00
C 135.24 369.57 140.49 366.82 143.00 368.00
C 143.00 365.00 143.00 362.00 143.00 359.00
C 143.00 354.67 143.00 350.33 143.00 346.00
C 159.50 357.46 176.04 343.98 175.00 326.00 C 173.96 308.02 156.74 298.90 142.00 310.00
C 143.44 303.64 135.63 306.68 132.00 306.00
C 132.46 312.56 131.39 320.58 132.00 327.00 C 132.61 333.42 130.82 342.12 132.00 348.00 C 133.18 353.88 129.01 364.01 133.00 368.00
M 156.00 314.00
C 169.36 316.41 165.62 344.12 151.00 341.00 C 136.38 337.88 140.83 311.26 156.00 314.00 Z"/>
</g>
<g fill="#0F2845" fill-opacity="1.00" stroke="None">
<path shape-rendering="geometricPrecision" d="
M 222.00 331.00
C 228.62 305.65 192.71 294.71 182.78 317.78 C 172.85 340.84 200.60 360.11 220.00 345.00
C 219.04 342.43 216.99 340.58 216.00 338.00
C 208.08 342.68 192.38 343.61 192.00 331.00
C 202.00 331.00 212.00 331.00 222.00 331.00
M 212.00 323.00
C 205.33 323.00 198.67 323.00 192.00 323.00
C 191.10 310.02 212.18 310.37 212.00 323.00 Z"/>
</g>
<g fill="#0D2744" fill-opacity="1.00" stroke="None">
<path shape-rendering="geometricPrecision" d="
M 265.00 349.00
C 264.32 339.06 265.90 328.92 265.00 319.00
C 265.43 309.83 255.99 304.90 248.00 305.00 C 240.01 305.10 226.32 305.74 231.00 317.00
C 238.93 312.32 256.01 310.09 255.00 324.00
C 243.49 320.47 225.53 324.01 227.02 338.98 C 228.52 353.94 247.33 351.43 256.00 345.00
C 253.53 349.59 262.89 350.48 265.00 349.00
M 254.00 330.00
C 260.76 334.78 246.39 348.14 239.78 341.22 C 233.16 334.30 247.15 325.15 254.00 330.00 Z"/>
</g>
<g fill="#0B2644" fill-opacity="1.00" stroke="None">
<path shape-rendering="geometricPrecision" d="
M 397.00 368.00
C 397.00 360.67 397.00 353.33 397.00 346.00
C 398.28 345.73 399.72 346.77 400.00 348.00
C 415.98 357.43 430.64 342.20 429.98 326.02 C 429.31 309.85 411.79 297.64 398.00 310.00
C 397.52 304.08 391.29 306.40 387.00 306.00
C 387.00 326.67 387.00 347.33 387.00 368.00
C 389.51 366.82 394.76 369.57 397.00 368.00
M 400.00 339.00
C 395.37 335.69 395.89 324.51 398.00 320.00
C 403.03 309.24 416.77 314.93 418.33 324.67 C 419.89 334.41 410.84 346.75 400.00 339.00 Z"/>
</g>
<g fill="#E9ECED" fill-opacity="1.00" stroke="None">
<path shape-rendering="geometricPrecision" d="
M 212.00 323.00
C 212.18 310.37 191.10 310.02 192.00 323.00
C 198.67 323.00 205.33 323.00 212.00 323.00 Z"/>
</g>
<g fill="#EDF0F0" fill-opacity="1.00" stroke="None">
<path shape-rendering="geometricPrecision" d="
M 156.00 314.00
C 140.83 311.26 136.38 337.88 151.00 341.00 C 165.62 344.12 169.36 316.41 156.00 314.00 Z"/>
</g>
<g fill="#F0F2F2" fill-opacity="1.00" stroke="None">
<path shape-rendering="geometricPrecision" d="
M 398.00 320.00
C 396.75 324.17 396.86 335.98 400.00 339.00
C 410.84 346.75 419.89 334.41 418.33 324.67 C 416.77 314.93 403.03 309.24 398.00 320.00 Z"/>
</g>
<g fill="#828A95" fill-opacity="1.00" stroke="None">
<path shape-rendering="geometricPrecision" d="
M 265.00 349.00
C 268.29 346.70 265.04 337.99 266.00 334.00 C 266.96 330.01 265.73 322.52 265.00 319.00
C 265.90 328.92 264.32 339.06 265.00 349.00 Z"/>
</g>
<g fill="#666D7B" fill-opacity="1.00" stroke="None">
<path shape-rendering="geometricPrecision" d="
M 400.00 339.00
C 396.86 335.98 396.75 324.17 398.00 320.00
C 395.89 324.51 395.37 335.69 400.00 339.00 Z"/>
</g>
<g fill="#7F848D" fill-opacity="1.00" stroke="None">
<path shape-rendering="geometricPrecision" d="
M 284.00 348.00
C 284.00 348.00 284.04 349.00 284.00 349.00
C 288.12 345.04 282.20 334.34 286.00 330.00
C 282.62 329.04 284.00 343.83 284.00 348.00 Z"/>
</g>
<g fill="#EDF0F0" fill-opacity="1.00" stroke="None">
<path shape-rendering="geometricPrecision" d="
M 254.00 330.00
C 247.15 325.15 233.16 334.30 239.78 341.22 C 246.39 348.14 260.76 334.78 254.00 330.00 Z"/>
</g>
<g fill="#6A7281" fill-opacity="1.00" stroke="None">
<path shape-rendering="geometricPrecision" d="
M 397.00 368.00
C 401.75 364.68 393.96 348.30 400.00 348.00
C 399.72 346.77 398.28 345.73 397.00 346.00
C 397.00 353.33 397.00 360.67 397.00 368.00 Z"/>
</g>
<g fill="#949AA4" fill-opacity="1.00" stroke="None">
<path shape-rendering="geometricPrecision" d="
M 133.00 368.00
C 135.68 370.27 140.50 368.38 144.00 369.00
C 144.89 365.68 143.25 361.61 143.00 359.00
C 143.00 362.00 143.00 365.00 143.00 368.00
C 140.49 366.82 135.24 369.57 133.00 368.00 Z"/>
</g>
</svg>
