<?xml version="1.0" encoding="UTF-8"?>
<svg version="1.0" xmlns="http://www.w3.org/2000/svg"  
     width="400pt" height="400pt" viewBox="0 0 400 400" preserveAspectRatio="xMidYMid meet">

  <!-- Outer bubble rim split into three colored arcs -->
  <g transform="translate(0,300) scale(0.1,-0.1)" stroke="none">
    <path
      d="M1277 2311 c-183 -60 -306 -229 -307 -421 0 -70 24 -162 56 -217 24 -41 24 -46 14 -125 -24 -196 -16 -204 125 -128 l95 51 52 -16 c28 -8 82 -15 119 -15 59 0 68 3 74 20 3 11 4 28 1 38 -5 13 1 17 25 19 16 1 43 11 58 23 16 11 34 20 39 20 6 0 26 18 45 40 l34 40 24 -19 24 -20 -30 -26 c-39 -32 -166 -97 -180 -91 -6 2 -17 -5 -24 -16 -12 -20 -11 -21 17 -15 44 9 133 54 174 87 93 77 158 224 158 359 0 98 -19 163 -71 240 -46 70 -70 87 -98 72 -33 -18 -32 -39 5 -88 92 -121 104 -270 31 -406 -38 -73 -118 -147 -183 -170 -62 -22 -157 -22 -238 0 l-63 16 -67 -37 c-41 -23 -66 -32 -66 -24 0 7 5 45 11 83 10 69 10 71 -26 141 -64 124 -58 242 16 354 87 129 250 187 409 146 66 -17 93 -8 88 32 -5 43 -62 65 -182 69 -80 2 -113 -1 -159 -16z"
      fill="#217E8D"
    />
    <path
      d="m1552 2288 c59 -17 60 -56 1 -42 -166 38 -307 4 -404 -98 -69 -73 -100 -140 -108 -236 -7 -81 -3 -98 46 -195 23 -45 24 -55 18 -142 -5 -67 -4 -95 4 -96 6 -1 17 -2 24 -3 6 -1 36 13 65 30 53 31 54 32 105 18 46 -12 118 -22 170 -23 9 -1 17 -7 17 -15 0 -25 -58 -29 -150 -11 l-87 18 -87 -46 c-47 -26 -93 -47 -101 -47 -17 0 -18 9 -4 110 14 105 13 117 -21 187 -17 34 -33 83 -35 110 -3 26 -8 55 -10 64 -10 30 15 151 43 208 54 110 177 203 293 221 62 10 167 4 221 -12z"
      fill="#112234"
    />
    <path
      d="m1764 2145 c15 -19 39 -60 53 -91 49 -108 30 -297 -39 -397 -16 -22 -23 -25 -34 -16 -12 10 -11 17 7 45 56 92 74 218 44 321 -9 31 -34 83 -56 115 -34 50 -37 58 -21 58 11 0 32 -16 46 -35z"
      fill="#EEA824"
    />
  </g>

  <!-- Inner “sound‐wave” shapes -->
  <g transform="translate(0,300) scale(0.1,-0.1)" fill="#112234" stroke="none">
    <path d="M1566 2094 c-20 -20 -20 -38 1 -55 9 -8 24 -32 34 -54 32 -69 22 -146 -27 -216 -21 -31 -24 -41 -14 -58 19 -36 55 -27 88 22 42 60 55 109 50 185 -4 71 -25 125 -63 167 -28 29 -47 32 -69 9z m83 -77 c41 -84 20 -247 -35 -284 -14 -9 -27 -14 -29 -11 -2 2 10 31 26 63 28 54 30 67 27 130 -4 53 -11 80 -31 111 -14 23 -23 44 -20 48 12 12 42 -15 62 -57z"/>
    <path d="M1434 2023 c-21 -15 -21 -38 -2 -71 23 -37 20 -92 -7 -122 -20 -22 -19 -47 2 -58 43 -24 103 52 103 129 0 77 -57 149 -96 122z m51 -51 c29 -70 20 -140 -22 -167 -26 -18 -29 -11 -8 25 16 29 20 116 5 125 -5 3 -10 15 -10 25 0 23 25 17 35 -8z"/>
  </g>

  <!-- All “Speak Up” letters -->
  <g transform="translate(0,300) scale(0.1,-0.1)" fill="#112234" stroke="none">
    <path d="M563 1250 c-37 -22 -53 -48 -53 -87 0 -45 27 -73 106 -109 76 -34 82 -41 64 -75 -14 -24 -78 -26 -122 -3 -30 15 -32 15 -45 -2 -27 -37 -18 -49 57 -69 97 -25 176 14 187 92 7 52 -20 84 -95 112 -65 23 -85 41 -80 67 5 28 53 38 103 22 43 -14 43 -14 55 10 13 29 8 35 -39 51 -50 16 -102 13 -138 -9z m12 -44 c-19 -19 -24 -32 -19 -48 10 -31 35 -55 67 -63 26 -7 48 -25 29 -25 -14 0 -75 31 -94 48 -28 24 -23 76 9 101 35 28 41 20 8 -13z m136 -152 c17 -21 22 -55 11 -84 -8 -22 -72 -57 -72 -40 0 6 5 10 12 10 21 0 48 33 48 58 0 14 -10 36 -22 49 -17 18 -18 23 -6 23 9 0 22 -7 29 -16z m-117 -123 c4 -5 -3 -7 -14 -4 -23 6 -26 13 -6 13 8 0 17 -4 20 -9z m43 -7 c-3 -3 -12 -4 -19 -1 -8 3 -5 6 6 6 11 1 17 -2 13 -5z"/>
    <path d="M1640 1086 l0 -184 36 0 36 0 -4 64 c-2 35 -1 64 2 64 3 -1 25 -29 49 -64 42 -59 48 -63 83 -63 21 0 38 2 38 5 0 8 -68 97 -89 116 -20 18 -20 18 29 75 28 32 50 60 50 64 0 3 -17 3 -37 0 -36 -6 -48 -15 -113 -96 -14 -16 -15 -7 -12 92 l4 111 -36 0 -36 0 0 -184z m37 92 c-3 -8 -6 -5 -6 6 -1 11 2 17 5 13 3 -3 4 -12 1 -19z m4 -187 c-9 -55 -9 -54 -8 29 0 60 2 77 8 56 4 -16 4 -54 0 -85z m72 61 c-2 -10 7 -30 22 -47 26 -30 49 -65 42 -65 -2 0 -23 23 -46 50 -35 42 -41 53 -31 65 16 20 19 19 13 -3z"/>
    <path d="M1997 1118 c3 -118 7 -147 22 -168 24 -34 67 -53 116 -53 53 0 94 20 122 62 21 31 23 45 23 167 l0 134 -35 0 -35 0 0 -128 c0 -151 -8 -172 -69 -172 -70 0 -76 11 -79 164 l-4 136 -32 0 -33 0 4 -142z m30 60 c-2 -13 -4 -5 -4 17 -1 22 1 32 4 23 2 -10 2 -28 0 -40z m6 -110 c3 -67 12 -86 57 -125 21 -19 22 -21 5 -17 -52 14 -74 57 -74 149 0 85 7 80 12 -7z m214 0 c-3 -8 -6 -5 -6 6 -1 11 2 17 5 13 3 -3 4 -12 1 -19z m-1 -62 c-9 -51 -57 -88 -112 -85 -10 0 -3 5 16 11 42 12 76 41 84 74 8 31 18 31 12 0z"/>
    <path d="M790 980 l0 -190 35 0 35 0 0 71 0 70 22 -15 c29 -20 87 -20 116 0 50 35 69 133 37 194 -27 53 -108 77 -151 45 -25 -19 -34 -19 -34 0 0 10 -10 15 -30 15 l-30 0 0 -190z m56 117 c-17 -28 -20 -101 -4 -127 9 -14 9 -24 0 -42 -6 -13 -13 -41 -15 -63 -2 -22 -4 31 -5 118 -2 155 -2 158 18 147 18 -10 19 -13 6 -33z m173 -34 c11 -60 -7 -112 -46 -128 -18 -8 -33 -10 -33 -5 0 6 4 10 10 10 15 0 60 49 61 68 3 35 -3 58 -22 90 -25 43 -24 52 2 25 12 -11 25 -38 28 -60z m-57 30 c23 -21 24 -89 1 -115 -18 -20 -73 -24 -91 -6 -20 20 -15 115 6 127 26 16 63 13 84 -6z"/>
    <path d="M1148 1154 c-15 -8 -35 -28 -43 -44 -19 -37 -19 -113 0 -150 29 -56 108 -76 181 -45 31 13 34 17 24 35 -8 15 -17 19 -28 15 -45 -18 -78 -16 -105 5 -47 38 -36 45 63 42 l90 -4 0 47 c0 40 -5 52 -34 81 -28 28 -41 34 -77 34 -24 -1 -56 -7 -71 -16z m104 -51 c34 -31 23 -43 -42 -43 -64 0 -72 8 -40 40 24 24 57 26 82 3z m52 -54 c-3 -5 -10 -9 -15 -9 -6 0 -7 6 -2 13 4 6 7 21 5 32 -1 17 0 16 8 -3 6 -13 8 -28 4 -33z m-162 0 c6 -4 4 -15 -4 -28 -11 -18 -10 -26 5 -53 14 -24 14 -28 3 -18 -21 17 -39 85 -30 113 5 16 8 18 12 7 3 -8 9 -18 14 -21z"/>
    <path d="M1403 1158 c-15 -7 -23 -20 -23 -36 0 -21 3 -23 23 -18 58 18 94 18 110 1 9 -9 17 -24 17 -33 0 -14 -8 -16 -49 -14 -62 5 -107 -17 -116 -56 -7 -36 8 -77 34 -91 28 -16 84 -13 107 4 24 18 35 19 31 3 -1 -8 10 -14 26 -16 l27 -3 0 109 0 110 -31 26 c-25 21 -41 26 -82 25 -29 0 -62 -5 -74 -11z m153 -45 c6 -10 12 -53 13 -95 2 -63 -1 -78 -12 -78 -12 0 -14 9 -10 39 3 23 1 41 -6 45 -8 5 -7 11 3 21 15 15 11 49 -7 73 -5 6 -5 12 -1 12 5 0 14 -8 20 -17z m-152 -118 c-4 -18 -1 -32 12 -47 19 -21 19 -21 -3 -9 -23 12 -29 35 -17 65 10 25 15 19 8 -9z m126 0 c0 -14 -8 -29 -20 -35 -30 -16 -74 -9 -78 13 -6 29 17 47 59 47 35 0 39 -3 39 -25z"/>
    <path d="M2320 980 l0 -190 36 0 36 0 -4 65 c-2 36 -3 65 -2 65 1 0 18 -7 39 -15 48 -21 96 -6 127 38 27 38 31 128 8 171 -27 51 -104 73 -146 41 -25 -19 -34 -19 -34 0 0 10 -10 15 -30 15 l-30 0 0 -190z m55 120 c-18 -19 -21 -125 -4 -135 6 -4 7 -14 3 -24 -4 -9 -10 -36 -14 -61 -4 -29 -7 10 -8 108 -2 149 -1 152 18 140 17 -11 18 -14 5 -28z m144 21 c38 -38 39 -141 3 -174 -9 -8 -30 -18 -47 -21 l-30 -7 31 17 c68 36 80 131 22 179 -20 17 -24 25 -14 25 9 0 25 -9 35 -19z m-25 -33 c21 -29 20 -87 -1 -110 -18 -20 -87 -25 -99 -7 -11 19 -7 108 6 124 19 23 76 19 94 -7z"/>
  </g>
</svg>
