<?xml version="1.0" encoding="UTF-8"?>
<svg version="1.0" xmlns="http://www.w3.org/2000/svg"  
     width="300pt" height="300pt" viewBox="0 0 300 300" preserveAspectRatio="xMidYMid meet">

  <!-- split the big bubble shape into 3 fill-subpaths -->
  <g transform="translate(0,300) scale(0.1,-0.1)" stroke="none">
    <!-- 1st (teal) -->
    <path
      d="M1277 2311 c-183 -60 -306 -229 -307 -421 0 -70 24 -162 56 -217 24 -41 24 -46 14 -125 -24 -196 -16 -204 125 -128 l95 51 52 -16 c28 -8 82 -15 119 -15 59 0 68 3 74 20 3 11 4 28 1 38 -5 13 1 17 25 19 16 1 43 11 58 23 16 11 34 20 39 20 6 0 26 18 45 40 l34 40 24 -19 24 -20 -30 -26 c-39 -32 -166 -97 -180 -91 -6 2 -17 -5 -24 -16 -12 -20 -11 -21 17 -15 44 9 133 54 174 87 93 77 158 224 158 359 0 98 -19 163 -71 240 -46 70 -70 87 -98 72 -33 -18 -32 -39 5 -88 92 -121 104 -270 31 -406 -38 -73 -118 -147 -183 -170 -62 -22 -157 -22 -238 0 l-63 16 -67 -37 c-41 -23 -66 -32 -66 -24 0 7 5 45 11 83 10 69 10 71 -26 141 -64 124 -58 242 16 354 87 129 250 187 409 146 66 -17 93 -8 88 32 -5 43 -62 65 -182 69 -80 2 -113 -1 -159 -16z"
      fill="#217E8D"
    />
    <!-- 2nd (dark-blue) -->
    <path
      d="m1552 2288 c59 -17 60 -56 1 -42 -166 38 -307 4 -404 -98 -69 -73 -100 -140 -108 -236 -7 -81 -3 -98 46 -195 23 -45 24 -55 18 -142 -5 -67 -4 -95 4 -96 6 -1 17 -2 24 -3 6 -1 36 13 65 30 53 31 54 32 105 18 46 -12 118 -22 170 -23 9 -1 17 -7 17 -15 0 -25 -58 -29 -150 -11 l-87 18 -87 -46 c-47 -26 -93 -47 -101 -47 -17 0 -18 9 -4 110 14 105 13 117 -21 187 -17 34 -33 83 -35 110 -3 26 -8 55 -10 64 -10 30 15 151 43 208 54 110 177 203 293 221 62 10 167 4 221 -12z"
      fill="#112234"
    />
    <!-- 3rd (orange) -->
    <path
      d="m1764 2145 c15 -19 39 -60 53 -91 49 -108 30 -297 -39 -397 -16 -22 -23 -25 -34 -16 -12 10 -11 17 7 45 56 92 74 218 44 321 -9 31 -34 83 -56 115 -34 50 -37 58 -21 58 11 0 32 -16 46 -35z"
      fill="#EEA824"
    />
  </g>

  <!-- inner “sound-waves” -->
  <g transform="translate(0,300) scale(0.1,-0.1)" fill="#112234" stroke="none">
    <path d="M1566 2094 c-20 -20 -20 -38 1 -55 9 -8 24 -32 34 -54 32 -69 22 -146 -27 -216 -21 -31 -24 -41 -14 -58 19 -36 55 -27 88 22 42 60 55 109 50 185 -4 71 -25 125 -63 167 -28 29 -47 32 -69 9z m83 -77 c41 -84 20 -247 -35 -284 -14 -9 -27 -14 -29 -11 -2 2 10 31 26 63 28 54 30 67 27 130 -4 53 -11 80 -31 111 -14 23 -23 44 -20 48 12 12 42 -15 62 -57z"/>
    <path d="M1434 2023 c-21 -15 -21 -38 -2 -71 23 -37 20 -92 -7 -122 -20 -22 -19 -47 2 -58 43 -24 103 52 103 129 0 77 -57 149 -96 122z m51 -51 c29 -70 20 -140 -22 -167 -26 -18 -29 -11 -8 25 16 29 20 116 5 125 -5 3 -10 15 -10 25 0 23 25 17 35 -8z"/>
  </g>

  <!-- all the “Speak Up” letter-paths -->
  <g transform="translate(0,300) scale(0.1,-0.1)" fill="#112234" stroke="none">
    <path d="M563 1250 c-37 -22 -53 -48 -53 -87 0 -45 27 -73 106 -109 76 -34 82 -41 64 -75 -14 -24 -78 -26 -122 -3 -30 15 -32 15 -45 -2 -27 -37 -18 -49 57 -69 97 -25 176 14 187 92 7 52 -20 84 -95 112 -65 23 -85 41 -80 67 5 28 53 38 103 22 43 -14 43 -14 55 10 13 29 8 35 -39 51 -50 16 -102 13 -138 -9z m12 -44 c-19 -19 -24 -32 -19 -48 10 -31 35 -55 67 -63 26 -7 48 -25 29 -25 -14 0 -75 31 -94 48 -28 24 -23 76 9 101 35 28 41 20 8 -13z m136 -152 c17 -21 22 -55 11 -84 -8 -22 -72 -57 -72 -40 0 6 5 10 12 10 21 0 48 33 48 58 0 14 -10 36 -22 49 -17 18 -18 23 -6 23 9 0 22 -7 29 -16z m-117 -123 c4 -5 -3 -7 -14 -4 -23 6 -26 13 -6 13 8 0 17 -4 20 -9z m43 -7 c-3 -3 -12 -4 -19 -1 -8 3 -5 6 6 6 11 1 17 -2 13 -5z"/>
    <!-- (and so on through all the remaining letter-paths exactly as in your B&W SVG) -->
    <!-- ... -->
  </g>
</svg>
