<svg xmlns="http://www.w3.org/2000/svg" viewBox="0 0 512 512"><title>Bridge</title><g id="Bridge"><g id="Bridge-2" data-name="Bridge"><path d="M443.69,238.4419H400.6732V132.583a9.4477,9.4477,0,0,0-9.45-9.45H350.0464a9.4517,9.4517,0,0,0-9.45,9.45v15.0822c-15.0885,11.6991-46.4121,21.31-84.59,21.31s-69.5016-9.6111-84.59-21.3129V132.583a9.4517,9.4517,0,0,0-9.45-9.45h-41.18a9.4517,9.4517,0,0,0-9.45,9.45V238.4392H68.3167a9.4511,9.4511,0,0,0-9.45,9.45V292.225a9.4517,9.4517,0,0,0,9.45,9.45h43.0165v77.742a9.4517,9.4517,0,0,0,9.45,9.45H161.96a9.4517,9.4517,0,0,0,9.45-9.45V301.675H340.59v77.742a9.4517,9.4517,0,0,0,9.45,9.45h41.1767a9.4477,9.4477,0,0,0,9.45-9.45V301.675h43.0164a9.4477,9.4477,0,0,0,9.45-9.45V247.8919A9.4377,9.4377,0,0,0,443.69,238.4419Zm-103.0968,0H302.3869V183.3547c14.7673-3.0681,27.7353-7.5825,38.2059-13.2453Zm-57.1059-52.0857v52.0857H228.5257V186.3562a245.4168,245.4168,0,0,0,27.4806,1.5183A245.2137,245.2137,0,0,0,283.4869,186.3562Zm-73.8612-2.9988v55.0845H171.4126V170.1058C181.8868,175.7722,194.8522,180.29,209.6257,183.3574ZM77.7667,282.775V257.3419h33.5665V282.775Zm93.6459,0V257.3419h169.18V282.775Zm262.827,0H400.6732V257.3419H434.24Z"/></g></g></svg>