<svg xmlns="http://www.w3.org/2000/svg" viewBox="0 0 64 64" class="contact-icon">
  <defs>
    <linearGradient id="whatsappGradient" x1="0%" y1="0%" x2="100%" y2="100%">
      <stop offset="0%" style="stop-color:#00A09A;stop-opacity:1" />
      <stop offset="100%" style="stop-color:#1A2C30;stop-opacity:1" />
    </linearGradient>
  </defs>
  
  <!-- Main chat bubble -->
  <path d="M32 8C18.7 8 8 18.7 8 32c0 4.2 1.1 8.1 3 11.5L8 56l12.5-3c3.4 1.9 7.3 3 11.5 3 13.3 0 24-10.7 24-24S45.3 8 32 8z" 
        fill="url(#whatsappGradient)" 
        stroke="#00A09A" 
        stroke-width="1"/>
  
  <!-- Phone handset inside bubble -->
  <path d="M42 38.5c-1.2 0-2.4-0.2-3.5-0.6-0.3-0.1-0.7-0.1-1 0.1l-2.2 2.2c-3.3-1.7-6-4.4-7.7-7.7l2.2-2.2c0.3-0.3 0.4-0.7 0.1-1-0.4-1.1-0.6-2.3-0.6-3.5 0-0.6-0.4-1-1-1h-6c-0.6 0-1 0.4-1 1 0 11 9 20 20 20 0.6 0 1-0.4 1-1v-6c0-0.6-0.4-1-1-1z" 
        fill="#FDB813"/>
  
  <!-- Chat message bubbles -->
  <rect x="24" y="20" width="12" height="4" rx="2" fill="#E2E8F0" opacity="0.8"/>
  <rect x="28" y="26" width="8" height="4" rx="2" fill="#FDB813" opacity="0.9"/>
  
  <!-- Subtle outer glow -->
  <circle cx="32" cy="32" r="25" 
          fill="none" 
          stroke="#FDB813" 
          stroke-width="0.5" 
          opacity="0.4"/>
</svg>
